<svg width="40" height="40" viewBox="0 0 40 40" fill="none" xmlns="http://www.w3.org/2000/svg">
<g clip-path="url(#clip0_18_12769)">
<path d="M11.1218 26.2888C6.80333 26.2888 0.0588379 26.9092 0.0588379 20.6784C0.0588379 17.509 2.36339 14.7599 5.66733 14.7599C16.4444 14.7599 25.176 23.4946 25.176 34.2754C25.176 37.3681 22.6961 39.9739 19.5675 39.9739C13.4338 39.9739 13.959 33.4311 13.959 29.149C13.959 27.5649 12.6834 26.2888 11.1218 26.2888Z" fill="url(#paint0_linear_18_12769)"/>
<path d="M26.3197 11.0869C26.3197 6.76689 26.9398 0.02005 20.7113 0.02005C17.543 0.02005 14.7949 2.3254 14.7949 5.63049C14.7949 16.4113 23.5265 25.1459 34.3035 25.1459C37.3952 25.1459 40 22.6652 40 19.5355C40 13.3996 33.4595 13.9251 29.179 13.9251C27.5954 13.9251 26.3197 12.649 26.3197 11.0869Z" fill="url(#paint1_linear_18_12769)"/>
</g>
<defs>
<linearGradient id="paint0_linear_18_12769" x1="1.15854" y1="15.8601" x2="24.3711" y2="41.4839" gradientUnits="userSpaceOnUse">
<stop stop-color="#DD7E7E"/>
<stop offset="0.280911" stop-color="#4318FF"/>
<stop offset="0.665142" stop-color="#4318FF"/>
<stop offset="1" stop-color="#4318FF"/>
</linearGradient>
<linearGradient id="paint1_linear_18_12769" x1="12.2656" y1="-2.95017" x2="44.713" y2="17.6112" gradientUnits="userSpaceOnUse">
<stop stop-color="#4318FF"/>
<stop offset="0.394309" stop-color="#4318FF"/>
<stop offset="0.631704" stop-color="#4318FF"/>
<stop offset="1" stop-color="#E087EF"/>
</linearGradient>
<clipPath id="clip0_18_12769">
<rect width="40" height="40" fill="white"/>
</clipPath>
</defs>
</svg>
